<?xml version="1.0" encoding="utf-8"?>
<!-- Generator: Adobe Illustrator 23.0.6, SVG Export Plug-In . SVG Version: 6.00 Build 0)  -->
<svg version="1.1" id="Layer_1" xmlns="http://www.w3.org/2000/svg" xmlns:xlink="http://www.w3.org/1999/xlink" x="0px" y="0px"
	 viewBox="0 0 59 72" style="enable-background:new 0 0 59 72;" xml:space="preserve">
<style type="text/css">
	.st0{fill-rule:evenodd;clip-rule:evenodd;fill:#C8FA96;}
	.st1{filter:url(#Adobe_OpacityMaskFilter);}
	.st2{fill-rule:evenodd;clip-rule:evenodd;fill:#FFFFFF;}
	.st3{mask:url(#mask-2_1_);fill:#B9F281;}
	.st4{fill:none;stroke:#FFFFFF;stroke-width:2.25;stroke-linecap:round;stroke-linejoin:round;}
	.st5{fill:none;stroke:#505050;stroke-width:2;stroke-linejoin:round;stroke-miterlimit:10;}
</style>
<title>badge01</title>
<desc>Created with Sketch.</desc>
<g id="Rectangle-Copy-2">
	<g id="Mask">
		<path class="st0" d="M58.5,12.5v29.7c0,14-27.6,29.7-29.2,29.7C27.6,72,0,56.2,0,42.3V12.5c7.4,0,26.4-8.4,29.3-12.5
			C32.1,4.1,50.8,12.5,58.5,12.5z"/>
	</g>
	<defs>
		<filter id="Adobe_OpacityMaskFilter" filterUnits="userSpaceOnUse" x="29.3" y="0" width="29.9" height="72">
			<feColorMatrix  type="matrix" values="1 0 0 0 0  0 1 0 0 0  0 0 1 0 0  0 0 0 1 0"/>
		</filter>
	</defs>
	<mask maskUnits="userSpaceOnUse" x="29.3" y="0" width="29.9" height="72" id="mask-2_1_">
		<g class="st1">
			<path id="path-1_1_" class="st2" d="M58.5,12.5v29.7c0,14-27.6,29.7-29.2,29.7C27.6,72,0,56.2,0,42.3V12.5
				c7.4,0,26.4-8.4,29.3-12.5C32.1,4.1,50.8,12.5,58.5,12.5z"/>
		</g>
	</mask>
	<rect id="Rectangle" x="29.3" class="st3" width="29.9" height="72"/>
</g>
<path id="Page-1-Copy-16" class="st4" d="M58.5,12.5v29.7c0,14-27.6,29.7-29.2,29.7C27.6,72,0,56.2,0,42.3V12.5
	c7.4,0,26.4-8.4,29.3-12.5C32.1,4.1,50.8,12.5,58.5,12.5z"/>
<g>
	<path class="st5" d="M21.1,48.1c0,0,0-4.1,0-5s-5.3-3.3-6-4.4c-0.4-0.7-6-10.6-6-10.6c0-1.6,2.2-2.4,4-1c1.8,1.4,5,5,5,5l1-4
		l-3.2-13c-0.1-0.5,0.2-1.1,0.7-1.3l1.1-0.4c0.6-0.2,1.2,0.1,1.4,0.7l5,12.1l1-15.2c0-0.5,0.5-0.9,1-0.9h1c0.6,0,1.1,0.4,1.1,1
		l1.9,15.1l2-13.3c0.1-0.5,0.5-0.7,1.1-0.7h0.9c0.6,0,1.1,0.3,1.1,0.9l-0.1,14.2l4-9.7c0.2-0.4,1-0.7,1-0.7v0c1,0,2.1,1.6,2,2.3
		l-3,11v8c0,3.9-3,4.7-3,6c0,1.3,0,4,0,4"/>
	<path class="st5" d="M27.8,38.1c-0.3-1.5-0.9-2.9-2-3.9c-1.9-1.9-5.1-2.1-7.7-2.1"/>
	<path class="st5" d="M23.1,56.1c-9.8-0.7-17-3.3-17-6.2c0-2.5,4.9-4.6,12-5.7"/>
	<path class="st5" d="M40.1,44.1c7.1,1.1,12,3.2,12,5.7c0,3.1-7.7,5.7-18,6.3"/>
	<path class="st5" d="M42.1,49.1c0,1.7-6,3-13.5,3c-7.5,0-13.5-1.3-13.5-3"/>
</g>
</svg>
