<?xml version="1.0" encoding="utf-8"?>
<!-- Generator: Adobe Illustrator 23.0.6, SVG Export Plug-In . SVG Version: 6.00 Build 0)  -->
<svg version="1.1" id="Layer_1" xmlns="http://www.w3.org/2000/svg" xmlns:xlink="http://www.w3.org/1999/xlink" x="0px" y="0px"
	 viewBox="0 0 59 72" style="enable-background:new 0 0 59 72;" xml:space="preserve">
<style type="text/css">
	.st0{fill-rule:evenodd;clip-rule:evenodd;fill:#C8FA96;}
	.st1{filter:url(#Adobe_OpacityMaskFilter);}
	.st2{fill-rule:evenodd;clip-rule:evenodd;fill:#FFFFFF;}
	.st3{mask:url(#mask-2_1_);fill:#B9F281;}
	.st4{fill:none;stroke:#FFFFFF;stroke-width:2.25;stroke-linecap:round;stroke-linejoin:round;}
	.st5{fill:none;stroke:#505050;stroke-width:2;stroke-linejoin:round;stroke-miterlimit:10;}
</style>
<title>badge01</title>
<desc>Created with Sketch.</desc>
<g id="Rectangle-Copy-2">
	<g id="Mask">
		<path class="st0" d="M58.5,12.5v29.7c0,14-27.6,29.7-29.2,29.7C27.6,72,0,56.2,0,42.3V12.5c7.4,0,26.4-8.4,29.3-12.5
			C32.1,4.1,50.8,12.5,58.5,12.5z"/>
	</g>
	<defs>
		<filter id="Adobe_OpacityMaskFilter" filterUnits="userSpaceOnUse" x="29.3" y="0" width="29.9" height="72">
			<feColorMatrix  type="matrix" values="1 0 0 0 0  0 1 0 0 0  0 0 1 0 0  0 0 0 1 0"/>
		</filter>
	</defs>
	<mask maskUnits="userSpaceOnUse" x="29.3" y="0" width="29.9" height="72" id="mask-2_1_">
		<g class="st1">
			<path id="path-1_1_" class="st2" d="M58.5,12.5v29.7c0,14-27.6,29.7-29.2,29.7C27.6,72,0,56.2,0,42.3V12.5
				c7.4,0,26.4-8.4,29.3-12.5C32.1,4.1,50.8,12.5,58.5,12.5z"/>
		</g>
	</mask>
	<rect id="Rectangle" x="29.3" class="st3" width="29.9" height="72"/>
</g>
<path id="Page-1-Copy-16" class="st4" d="M58.5,12.5v29.7c0,14-27.6,29.7-29.2,29.7C27.6,72,0,56.2,0,42.3V12.5
	c7.4,0,26.4-8.4,29.3-12.5C32.1,4.1,50.8,12.5,58.5,12.5z"/>
<g>
	<line class="st5" x1="23.8" y1="37.1" x2="52.8" y2="37.1"/>
	<polyline class="st5" points="36.8,34.1 40.8,34.1 40.8,37.1 	"/>
	<polyline class="st5" points="44.8,37.1 44.8,34.1 48.8,34.1 50.8,34.1 50.8,22.1 45.8,22.1 	"/>
	<path class="st5" d="M44.8,30.1h-3v-17h3c1.1,0,2,0.9,2,2v13C46.8,29.2,45.9,30.1,44.8,30.1z"/>
	<line class="st5" x1="19.8" y1="52.1" x2="19.8" y2="57.1"/>
	<path class="st5" d="M33.8,59.1l-6-11h-7c-3.3,0-6-2.7-6-6v-11c0-2.2,1.8-4,4-4h4l7,5h5c0,0,0.6,5-4,5c-2.7,0-4,0-4,0l-6-4"/>
	<path class="st5" d="M23.8,35.1v6h5c2.1,0,4,1.3,4.7,3.3l4.8,14.7"/>
	<path class="st5" d="M10.8,29.1v15c0,4.4,3.6,8,8,8h7"/>
	<polyline class="st5" points="10.8,41.1 18.8,41.1 20.8,44.1 	"/>
	<polyline class="st5" points="25.8,59.1 23.8,59.1 21.8,59.1 19.8,57.1 17.8,59.1 15.8,59.1 13.8,59.1 	"/>
	<path class="st5" d="M20.3,24.1c2.5,0,4.5-1.9,4.5-4.3v-1.4c0-2.4-2-4.3-4.5-4.3c-2.5,0-4.5,1.9-4.5,4.3v1.4
		C15.8,22.2,17.8,24.1,20.3,24.1z"/>
</g>
</svg>
