<?xml version="1.0" encoding="utf-8"?>
<!-- Generator: Adobe Illustrator 23.0.6, SVG Export Plug-In . SVG Version: 6.00 Build 0)  -->
<svg version="1.1" id="Layer_1" xmlns="http://www.w3.org/2000/svg" xmlns:xlink="http://www.w3.org/1999/xlink" x="0px" y="0px"
	 viewBox="0 0 59 72" style="enable-background:new 0 0 59 72;" xml:space="preserve">
<style type="text/css">
	.st0{fill-rule:evenodd;clip-rule:evenodd;fill:#C8FA96;}
	.st1{filter:url(#Adobe_OpacityMaskFilter);}
	.st2{fill-rule:evenodd;clip-rule:evenodd;fill:#FFFFFF;}
	.st3{mask:url(#mask-2_1_);fill:#B9F281;}
	.st4{fill:none;stroke:#FFFFFF;stroke-width:2.25;stroke-linecap:round;stroke-linejoin:round;}
	.st5{fill:none;stroke:#505050;stroke-width:2;stroke-miterlimit:10;}
</style>
<title>badge01</title>
<desc>Created with Sketch.</desc>
<g id="Rectangle-Copy-2">
	<g id="Mask">
		<path class="st0" d="M58.5,12.5v29.7c0,14-27.6,29.7-29.2,29.7C27.6,72,0,56.2,0,42.3V12.5c7.4,0,26.4-8.4,29.3-12.5
			C32.1,4.1,50.8,12.5,58.5,12.5z"/>
	</g>
	<defs>
		<filter id="Adobe_OpacityMaskFilter" filterUnits="userSpaceOnUse" x="29.3" y="0" width="29.9" height="72">
			<feColorMatrix  type="matrix" values="1 0 0 0 0  0 1 0 0 0  0 0 1 0 0  0 0 0 1 0"/>
		</filter>
	</defs>
	<mask maskUnits="userSpaceOnUse" x="29.3" y="0" width="29.9" height="72" id="mask-2_1_">
		<g class="st1">
			<path id="path-1_1_" class="st2" d="M58.5,12.5v29.7c0,14-27.6,29.7-29.2,29.7C27.6,72,0,56.2,0,42.3V12.5
				c7.4,0,26.4-8.4,29.3-12.5C32.1,4.1,50.8,12.5,58.5,12.5z"/>
		</g>
	</mask>
	<rect id="Rectangle" x="29.3" class="st3" width="29.9" height="72"/>
</g>
<path id="Page-1-Copy-16" class="st4" d="M58.5,12.5v29.7c0,14-27.6,29.7-29.2,29.7C27.6,72,0,56.2,0,42.3V12.5
	c7.4,0,26.4-8.4,29.3-12.5C32.1,4.1,50.8,12.5,58.5,12.5z"/>
<g>
	<g>
		<path class="st5" d="M32.8,57.6h-20c-1.7,0-3-1.3-3-3v-39c0-1.7,1.3-3,3-3h20c1.7,0,3,1.3,3,3v39C35.8,56.3,34.5,57.6,32.8,57.6z"
			/>
		<line class="st5" x1="9.8" y1="17.6" x2="35.8" y2="17.6"/>
		<line class="st5" x1="9.8" y1="51.6" x2="35.8" y2="51.6"/>
		<line class="st5" x1="20.8" y1="54.6" x2="24.8" y2="54.6"/>
	</g>
	<path class="st5" d="M27.8,29.6v-3c0-0.6,0.4-1,1-1h4"/>
	<path class="st5" d="M35.8,25.6h12c0.6,0,1,0.4,1,1v27h-13"/>
	<path class="st5" d="M32.8,21.6h-2c-0.6,0-1,0.4-1,1v3"/>
	<path class="st5" d="M46.8,25.6v-3c0-0.6-0.4-1-1-1h-10"/>
	<path class="st5" d="M29.8,41.6h-1v4l-5-4h-8c-1.1,0-2-0.9-2-2v-8c0-1.1,0.9-2,2-2h14c1.1,0,2,0.9,2,2v8
		C31.8,40.7,30.9,41.6,29.8,41.6z"/>
	<line class="st5" x1="22.8" y1="32.6" x2="22.8" y2="38.6"/>
	<line class="st5" x1="25.8" y1="35.6" x2="19.8" y2="35.6"/>
	<polyline class="st5" points="44.8,33.6 44.8,30.6 40.8,30.6 40.8,33.6 	"/>
	<polyline class="st5" points="44.8,39.6 44.8,36.6 40.8,36.6 40.8,39.6 	"/>
	<polyline class="st5" points="44.8,45.6 44.8,42.6 40.8,42.6 40.8,45.6 	"/>
</g>
</svg>
