<?xml version="1.0" encoding="utf-8"?>
<!-- Generator: Adobe Illustrator 23.0.6, SVG Export Plug-In . SVG Version: 6.00 Build 0)  -->
<svg version="1.1" id="Layer_1" xmlns="http://www.w3.org/2000/svg" xmlns:xlink="http://www.w3.org/1999/xlink" x="0px" y="0px"
	 viewBox="0 0 59 72" style="enable-background:new 0 0 59 72;" xml:space="preserve">
<style type="text/css">
	.st0{fill-rule:evenodd;clip-rule:evenodd;fill:#C8FA96;}
	.st1{filter:url(#Adobe_OpacityMaskFilter);}
	.st2{fill-rule:evenodd;clip-rule:evenodd;fill:#FFFFFF;}
	.st3{mask:url(#mask-2_1_);fill:#B9F281;}
	.st4{fill:none;stroke:#FFFFFF;stroke-width:2.25;stroke-linecap:round;stroke-linejoin:round;}
	.st5{fill:none;stroke:#505050;stroke-width:2;stroke-miterlimit:10;}
</style>
<title>badge01</title>
<desc>Created with Sketch.</desc>
<g id="Rectangle-Copy-2">
	<g id="Mask">
		<path class="st0" d="M58.5,12.5v29.7c0,14-27.6,29.7-29.2,29.7C27.6,72,0,56.2,0,42.3V12.5c7.4,0,26.4-8.4,29.3-12.5
			C32.1,4.1,50.8,12.5,58.5,12.5z"/>
	</g>
	<defs>
		<filter id="Adobe_OpacityMaskFilter" filterUnits="userSpaceOnUse" x="29.3" y="0" width="29.9" height="72">
			<feColorMatrix  type="matrix" values="1 0 0 0 0  0 1 0 0 0  0 0 1 0 0  0 0 0 1 0"/>
		</filter>
	</defs>
	<mask maskUnits="userSpaceOnUse" x="29.3" y="0" width="29.9" height="72" id="mask-2_1_">
		<g class="st1">
			<path id="path-1_1_" class="st2" d="M58.5,12.5v29.7c0,14-27.6,29.7-29.2,29.7C27.6,72,0,56.2,0,42.3V12.5
				c7.4,0,26.4-8.4,29.3-12.5C32.1,4.1,50.8,12.5,58.5,12.5z"/>
		</g>
	</mask>
	<rect id="Rectangle" x="29.3" class="st3" width="29.9" height="72"/>
</g>
<path id="Page-1-Copy-16" class="st4" d="M58.5,12.5v29.7c0,14-27.6,29.7-29.2,29.7C27.6,72,0,56.2,0,42.3V12.5
	c7.4,0,26.4-8.4,29.3-12.5C32.1,4.1,50.8,12.5,58.5,12.5z"/>
<g>
	<path class="st5" d="M21.6,42.4c2.3-2.3,10-10,15.6-15.6c4.5-4.5,7.3-10.1,8.2-12c0.1-0.3-0.1-0.5-0.4-0.4c-1.9,0.9-7.5,3.7-12,8.2
		c-5.5,5.5-13.3,13.3-15.6,15.6L21.6,42.4z"/>
	<path class="st5" d="M21.6,42.4c0,0-0.5,2.3,0,2.8c0.5,0.5,0.8,0.8,1.3,1.3c1.1-0.3,1.7,0.2,2.3,0.9c1.2,1.2,1.2,3.1,0,4.2
		c-1.2,1.2-3.1,1.2-4.2,0c-0.6-0.6-1.2-1.2-0.9-2.3c-1.1-1.1-0.8-0.8-2-2c-0.8-0.8-2-0.8-2.8,0c-0.7,0.7-2.6,2.6-3.4,3.4
		c0,0.8-0.2,1.7-0.9,2.3c-1.2,1.2-3.1,1.2-4.2,0c-1.2-1.2-1.2-3.1,0-4.2c0.6-0.6,1.5-0.9,2.3-0.9c0.8-0.8,2.7-2.7,3.4-3.4
		c0.8-0.8,0.8-2.1,0-2.8c-1.2-1.2-0.9-0.9-2-2c-0.8,0-1.7-0.2-2.3-0.9c-1.2-1.2-1.2-3.1,0-4.2c1.2-1.2,3.1-1.2,4.2,0
		c0.6,0.6,1.2,1.2,0.9,2.3c0.4,0.4,0.8,0.8,1.3,1.3c0.5,0.5,2.8,0,2.8,0L21.6,42.4z"/>
	<path class="st5" d="M34.2,33.2c2.2,2.2,4,4,5,5L35,42.4c-0.9-0.9-2.6-2.6-4.7-4.7"/>
	<path class="st5" d="M22.2,29.7c-1-1-1.9-1.9-2.8-2.8c-4.5-4.5-7.3-10.1-8.2-12c-0.1-0.3,0.1-0.5,0.4-0.4c1.9,0.9,7.5,3.7,12,8.2
		c0.8,0.8,1.7,1.7,2.6,2.6"/>
	<path class="st5" d="M35,42.4c0,0,0.5,2.3,0,2.8c-0.5,0.5-0.8,0.8-1.3,1.3c-1.1-0.3-1.7,0.2-2.3,0.9c-1.2,1.2-1.2,3.1,0,4.2
		c1.2,1.2,3.1,1.2,4.2,0c0.6-0.6,1.2-1.2,0.9-2.3c1.1-1.1,0.8-0.8,2-2c0.8-0.8,2-0.8,2.8,0c0.7,0.7,2.6,2.6,3.4,3.4
		c0,0.8,0.2,1.7,0.9,2.3c1.2,1.2,3.1,1.2,4.2,0c1.2-1.2,1.2-3.1,0-4.2c-0.6-0.6-1.5-0.9-2.3-0.9c-0.8-0.8-2.7-2.7-3.4-3.4
		c-0.8-0.8-0.8-2.1,0-2.8c1.2-1.2,0.9-0.9,2-2c0.8,0,1.7-0.2,2.3-0.9c1.2-1.2,1.2-3.1,0-4.2c-1.2-1.2-3.1-1.2-4.2,0
		c-0.6,0.6-1.2,1.2-0.9,2.3c-0.4,0.4-0.8,0.8-1.3,1.3c-0.5,0.5-2.8,0-2.8,0L35,42.4z"/>
</g>
</svg>
