<?xml version="1.0" encoding="utf-8"?>
<!-- Generator: Adobe Illustrator 23.0.6, SVG Export Plug-In . SVG Version: 6.00 Build 0)  -->
<svg version="1.1" id="Layer_1" xmlns="http://www.w3.org/2000/svg" xmlns:xlink="http://www.w3.org/1999/xlink" x="0px" y="0px"
	 viewBox="0 0 59 72" style="enable-background:new 0 0 59 72;" xml:space="preserve">
<style type="text/css">
	.st0{fill-rule:evenodd;clip-rule:evenodd;fill:#C8FA96;}
	.st1{filter:url(#Adobe_OpacityMaskFilter);}
	.st2{fill-rule:evenodd;clip-rule:evenodd;fill:#FFFFFF;}
	.st3{mask:url(#mask-2_1_);fill:#B9F281;}
	.st4{fill:none;stroke:#FFFFFF;stroke-width:2.25;stroke-linecap:round;stroke-linejoin:round;}
	.st5{fill:none;stroke:#505050;stroke-width:2;stroke-miterlimit:10;}
</style>
<title>badge01</title>
<desc>Created with Sketch.</desc>
<g id="Rectangle-Copy-2">
	<g id="Mask">
		<path class="st0" d="M58.5,12.5v29.7c0,14-27.6,29.7-29.2,29.7C27.6,72,0,56.2,0,42.3V12.5c7.4,0,26.4-8.4,29.3-12.5
			C32.1,4.1,50.8,12.5,58.5,12.5z"/>
	</g>
	<defs>
		<filter id="Adobe_OpacityMaskFilter" filterUnits="userSpaceOnUse" x="29.3" y="0" width="29.9" height="72">
			<feColorMatrix  type="matrix" values="1 0 0 0 0  0 1 0 0 0  0 0 1 0 0  0 0 0 1 0"/>
		</filter>
	</defs>
	<mask maskUnits="userSpaceOnUse" x="29.3" y="0" width="29.9" height="72" id="mask-2_1_">
		<g class="st1">
			<path id="path-1_1_" class="st2" d="M58.5,12.5v29.7c0,14-27.6,29.7-29.2,29.7C27.6,72,0,56.2,0,42.3V12.5
				c7.4,0,26.4-8.4,29.3-12.5C32.1,4.1,50.8,12.5,58.5,12.5z"/>
		</g>
	</mask>
	<rect id="Rectangle" x="29.3" class="st3" width="29.9" height="72"/>
</g>
<path id="Page-1-Copy-16" class="st4" d="M58.5,12.5v29.7c0,14-27.6,29.7-29.2,29.7C27.6,72,0,56.2,0,42.3V12.5
	c7.4,0,26.4-8.4,29.3-12.5C32.1,4.1,50.8,12.5,58.5,12.5z"/>
<g>
	<path class="st5" d="M42.3,37.1h3c3.9,0,7-3.1,7-7c0-3.9-3.1-7-7-7c-0.7,0-1.5,0.1-2.1,0.3c0.1-0.4,0.1-0.9,0.1-1.3
		c0-3.9-3.1-7-7-7c-1.7,0-3.3,0.6-4.6,1.7c-1.4-3.9-5.1-6.7-9.4-6.7c-5.5,0-10,4.5-10,10c0,1.1,0.2,2.1,0.5,3
		c-3.6,0.3-6.5,3.3-6.5,7c0,3.9,3.1,7,7,7h3"/>
	<path class="st5" d="M31.8,16.8c0.3,0.7,0.4,1.5,0.5,2.3"/>
	<path class="st5" d="M43.2,23.5c-0.2,0.8-0.5,1.6-0.9,2.3"/>
	<path class="st5" d="M12.8,23.1c0.9-0.1,1.7,0,2.6,0.3"/>
	<rect x="7.3" y="45.1" class="st5" width="12" height="8"/>
	<rect x="23.3" y="45.1" class="st5" width="12" height="8"/>
	<rect x="39.3" y="45.1" class="st5" width="12" height="8"/>
	<line class="st5" x1="9.3" y1="56.1" x2="17.3" y2="56.1"/>
	<line class="st5" x1="13.3" y1="53.1" x2="13.3" y2="56.1"/>
	<line class="st5" x1="25.3" y1="56.1" x2="33.3" y2="56.1"/>
	<line class="st5" x1="29.3" y1="53.1" x2="29.3" y2="56.1"/>
	<line class="st5" x1="41.3" y1="56.1" x2="49.3" y2="56.1"/>
	<line class="st5" x1="45.3" y1="53.1" x2="45.3" y2="56.1"/>
	<line class="st5" x1="18.3" y1="43.1" x2="18.3" y2="35.1"/>
	<line class="st5" x1="29.3" y1="43.1" x2="29.3" y2="33.1"/>
	<line class="st5" x1="40.3" y1="43.1" x2="40.3" y2="36.1"/>
	<line class="st5" x1="20.3" y1="37.1" x2="27.3" y2="37.1"/>
	<line class="st5" x1="31.3" y1="37.1" x2="38.3" y2="37.1"/>
	<line class="st5" x1="18.3" y1="33.1" x2="18.3" y2="31.1"/>
	<line class="st5" x1="18.3" y1="29.1" x2="18.3" y2="27.1"/>
	<line class="st5" x1="29.3" y1="31.1" x2="29.3" y2="29.1"/>
	<line class="st5" x1="29.3" y1="27.1" x2="29.3" y2="25.1"/>
	<line class="st5" x1="40.3" y1="34.1" x2="40.3" y2="32.1"/>
	<line class="st5" x1="29.3" y1="23.1" x2="29.3" y2="21.1"/>
</g>
</svg>
