<?xml version="1.0" encoding="utf-8"?>
<!-- Generator: Adobe Illustrator 23.0.6, SVG Export Plug-In . SVG Version: 6.00 Build 0)  -->
<svg version="1.1" id="Layer_1" xmlns="http://www.w3.org/2000/svg" xmlns:xlink="http://www.w3.org/1999/xlink" x="0px" y="0px"
	 viewBox="0 0 59 72" style="enable-background:new 0 0 59 72;" xml:space="preserve">
<style type="text/css">
	.st0{fill-rule:evenodd;clip-rule:evenodd;fill:#C8FA96;}
	.st1{filter:url(#Adobe_OpacityMaskFilter);}
	.st2{fill-rule:evenodd;clip-rule:evenodd;fill:#FFFFFF;}
	.st3{mask:url(#mask-2_1_);fill:#B9F281;}
	.st4{fill:none;stroke:#FFFFFF;stroke-width:2.25;stroke-linecap:round;stroke-linejoin:round;}
	.st5{fill:none;stroke:#505050;stroke-width:2;stroke-linejoin:round;stroke-miterlimit:10;}
</style>
<title>badge01</title>
<desc>Created with Sketch.</desc>
<g id="Rectangle-Copy-2">
	<g id="Mask">
		<path class="st0" d="M58.5,12.5v29.7c0,14-27.6,29.7-29.2,29.7C27.6,72,0,56.2,0,42.3V12.5c7.4,0,26.4-8.4,29.3-12.5
			C32.1,4.1,50.8,12.5,58.5,12.5z"/>
	</g>
	<defs>
		<filter id="Adobe_OpacityMaskFilter" filterUnits="userSpaceOnUse" x="29.3" y="0" width="29.9" height="72">
			<feColorMatrix  type="matrix" values="1 0 0 0 0  0 1 0 0 0  0 0 1 0 0  0 0 0 1 0"/>
		</filter>
	</defs>
	<mask maskUnits="userSpaceOnUse" x="29.3" y="0" width="29.9" height="72" id="mask-2_1_">
		<g class="st1">
			<path id="path-1_1_" class="st2" d="M58.5,12.5v29.7c0,14-27.6,29.7-29.2,29.7C27.6,72,0,56.2,0,42.3V12.5
				c7.4,0,26.4-8.4,29.3-12.5C32.1,4.1,50.8,12.5,58.5,12.5z"/>
		</g>
	</mask>
	<rect id="Rectangle" x="29.3" class="st3" width="29.9" height="72"/>
</g>
<path id="Page-1-Copy-16" class="st4" d="M58.5,12.5v29.7c0,14-27.6,29.7-29.2,29.7C27.6,72,0,56.2,0,42.3V12.5
	c7.4,0,26.4-8.4,29.3-12.5C32.1,4.1,50.8,12.5,58.5,12.5z"/>
<g>
	<path class="st5" d="M40.8,58.6V45.8c0-2.1,3.1-4.2,3-7.2v-13"/>
	<path class="st5" d="M30.8,39.6c-0.1-5.3-7.9-10-11-10c0.8,0,5,0,7,0c4.4,0,5-5,5-7c-1.7,0-15,0-15,0c-1.9,0-3.1,2.7-3.6,3.8
		c-0.8,1.7-2.4,5-2.4,6.2c0,1.3,2.3,4.2,4.4,6.3c2.2,2.2,5.6,5.7,5.6,5.7v14"/>
	<path class="st5" d="M43.8,27.6h-6v-4.8v-4.2c0-1.1,0.9-2,2-2h2c1.1,0,2,0.9,2,2V27.6z"/>
	<path class="st5" d="M30.8,22.6v-5c0-1.1,0.9-2,2-2h3c1.1,0,2,0.9,2,2v9h-7"/>
	<path class="st5" d="M16.8,22.6v-5c0-1.1,0.9-2,2-2h3c1.1,0,2,0.9,2,2v1"/>
	<path class="st5" d="M23.8,22.6v-6c0-1.1,0.9-2,2-2h3c1.1,0,2,0.9,2,2v1"/>
</g>
</svg>
